<?xml version="1.0" encoding="UTF-8"?>
<svg width="800px" height="800px" viewBox="0 0 800 800" xmlns="http://www.w3.org/2000/svg" xmlns:xlink="http://www.w3.org/1999/xlink" version="1.1">
 <!-- Generated by Pixelmator Pro 2.0.8 -->
 <g id="group"/>
 <path id="Shape" d="M178.29 701.199 C159.078 685.73 148.582 676.573 142.572 670.869 136.561 665.166 127.183 655.55 121.73 649.5 116.277 643.45 107.883 633.325 103.075 627 98.268 620.675 91.632 611.45 88.329 606.5 85.026 601.55 79.721 593.064 76.54 587.642 73.359 582.22 70.551 577 70.301 576.043 69.919 574.582 70.785 574.2 75.673 573.675 78.878 573.33 84.875 572.112 89 570.969 93.125 569.825 100.119 567.147 104.542 565.017 108.965 562.887 115.337 559.117 118.702 556.641 122.067 554.164 127.28 549.676 130.288 546.669 133.295 543.662 137.845 538.273 140.399 534.694 142.953 531.115 146.792 524.432 148.93 519.844 151.068 515.255 153.864 507.225 155.144 502 156.929 494.708 157.466 489.711 157.455 480.5 157.444 471.682 156.86 466.048 155.252 459.253 154.048 454.167 151.457 446.517 149.493 442.253 147.529 437.989 144.298 432.025 142.312 429 140.326 425.975 136.473 420.913 133.751 417.75 131.029 414.587 125.186 409.275 120.766 405.944 116.346 402.614 109.753 398.392 106.115 396.563 102.477 394.733 95.862 392.089 91.415 390.686 86.968 389.284 78.837 387.642 73.346 387.038 66.337 386.267 60.665 386.245 54.312 386.965 49.334 387.529 41.715 389.052 37.381 390.349 33.046 391.647 28.647 393.072 27.605 393.517 25.781 394.295 25.737 393.843 26.43 381.413 26.825 374.311 27.779 363.1 28.548 356.5 29.318 349.9 30.883 339.325 32.027 333 33.17 326.675 35.45 316.1 37.094 309.5 38.737 302.9 41.914 291.875 44.154 285 46.393 278.125 50.08 267.775 52.346 262 54.612 256.225 59.771 244.75 63.81 236.5 67.85 228.25 74.23 216.325 77.988 210 81.746 203.675 88.064 193.775 92.029 188 95.994 182.225 103.562 172.1 108.848 165.5 114.133 158.9 126.117 145.82 135.478 136.434 144.84 127.047 158.524 114.572 165.887 108.71 173.249 102.849 184.978 94.253 191.951 89.608 198.923 84.964 209.999 78.141 216.564 74.445 223.129 70.75 232.775 65.72 238 63.267 243.225 60.815 251.325 57.219 256 55.277 260.675 53.335 264.994 51.556 265.598 51.324 266.314 51.049 266.904 53.792 267.292 59.201 267.62 63.766 268.858 70.65 270.044 74.5 271.23 78.35 274.004 84.986 276.21 89.247 278.534 93.738 282.994 99.99 286.821 104.124 290.452 108.046 295.69 112.959 298.461 115.042 301.233 117.126 306.763 120.462 310.751 122.456 314.739 124.451 321.449 126.964 325.661 128.041 331.024 129.413 336.672 130 344.5 130 352.449 130 357.966 129.415 363.59 127.977 367.941 126.865 374.377 124.608 377.893 122.963 381.41 121.317 387.035 117.994 390.393 115.577 393.752 113.16 398.36 109.229 400.633 106.842 402.907 104.454 406.362 100.241 408.313 97.479 410.263 94.717 413.45 89.138 415.394 85.081 417.339 81.023 419.717 74.283 420.678 70.102 421.662 65.825 422.443 58.345 422.464 53 422.484 47.775 421.934 40.8 421.242 37.5 420.551 34.2 419.706 30.469 419.365 29.209 418.752 26.942 418.817 26.925 425.623 27.544 429.405 27.888 438.35 28.839 445.5 29.658 452.65 30.477 465.22 32.494 473.433 34.14 481.647 35.786 495.372 39.16 503.933 41.638 512.495 44.115 526.916 49.084 535.981 52.68 545.046 56.275 558.247 62.116 565.318 65.66 572.389 69.203 583.873 75.494 590.837 79.639 597.802 83.784 608 90.37 613.5 94.275 619 98.179 627.065 104.22 631.422 107.7 635.779 111.179 644.282 118.408 650.317 123.763 656.352 129.118 666.062 138.693 671.895 145.04 677.728 151.386 686.033 160.973 690.35 166.343 694.668 171.713 701.487 180.801 705.504 186.539 709.521 192.277 715.969 202.265 719.833 208.736 723.696 215.206 730.412 227.749 734.756 236.609 739.1 245.468 744.956 258.775 747.769 266.179 750.583 273.583 754.522 285.009 756.525 291.571 758.527 298.132 761.421 308.9 762.955 315.5 764.49 322.1 765.644 327.622 765.519 327.77 765.395 327.919 761.964 326.471 757.896 324.552 753.828 322.633 747.8 320.344 744.5 319.464 741.2 318.585 733.982 317.611 728.459 317.3 721.067 316.883 716.187 317.185 709.959 318.441 705.307 319.381 698.575 321.377 695 322.878 691.425 324.378 685.848 327.306 682.606 329.383 679.364 331.46 674.241 335.486 671.222 338.33 668.203 341.173 663.574 346.564 660.935 350.309 658.297 354.054 654.792 360.354 653.147 364.309 651.502 368.264 649.387 375.304 648.446 379.954 647.167 386.277 646.882 391.067 647.314 398.954 647.632 404.754 648.625 412.2 649.521 415.5 650.417 418.8 652.655 424.65 654.495 428.5 656.335 432.35 660.146 438.544 662.965 442.265 665.784 445.986 671.067 451.486 674.706 454.487 678.345 457.489 684.749 461.728 688.938 463.907 693.127 466.086 699.899 468.796 703.985 469.929 708.072 471.061 714.866 472.276 719.083 472.627 723.458 472.992 730.227 472.758 734.85 472.082 739.305 471.431 746.183 469.798 750.135 468.454 754.087 467.11 759.734 464.648 762.685 462.983 767.953 460.01 768.04 459.996 767.537 462.228 767.256 463.477 766.126 469 765.026 474.5 763.926 480 761.473 490.353 759.575 497.507 757.677 504.661 754.231 515.911 751.916 522.507 749.601 529.103 745.794 539.068 743.457 544.652 741.119 550.235 735.675 561.71 731.359 570.152 727.043 578.593 720.085 590.972 715.898 597.659 711.711 604.347 703.88 615.707 698.496 622.904 L688.707 635.99 680.104 627.138 C675.372 622.27 667.97 615.512 663.656 612.121 659.342 608.73 651.637 603.497 646.533 600.494 641.43 597.49 633.499 593.426 628.909 591.461 624.32 589.497 616.262 586.611 611.003 585.049 605.744 583.486 596.9 581.486 591.351 580.604 585.354 579.651 575.165 579 566.23 579 555.909 579 547.635 579.609 539.828 580.944 533.574 582.013 523.517 584.503 517.478 586.477 511.44 588.451 501.55 592.536 495.5 595.554 489.45 598.572 480.597 603.845 475.826 607.271 471.055 610.697 464.146 616.158 460.472 619.406 456.798 622.655 450.863 628.73 447.283 632.906 443.703 637.083 438.638 643.65 436.026 647.5 433.415 651.35 429.233 658.325 426.732 663 424.232 667.675 420.519 676 418.482 681.5 416.445 687 413.719 696.225 412.425 702 411.13 707.775 409.642 717.9 409.119 724.5 408.549 731.693 408.518 741.106 409.041 748 409.522 754.325 410.554 762.537 411.335 766.25 412.756 773 412.756 773 397.769 773 382.783 773 382.783 773 383.439 770.389 383.799 768.952 384.486 765.69 384.965 763.139 385.444 760.587 386.141 754.9 386.513 750.5 386.885 746.1 386.706 738.225 386.115 733 385.524 727.775 384.1 719.9 382.952 715.5 381.804 711.1 378.902 703.345 376.503 698.266 374.105 693.188 369.877 685.763 367.109 681.766 364.34 677.77 358.571 671.053 354.288 666.84 350.004 662.627 343.49 657.099 339.812 654.556 336.133 652.013 328.933 647.953 323.812 645.534 318.69 643.115 310.9 640.194 306.5 639.043 302.1 637.892 294.068 636.443 288.652 635.823 281.229 634.973 276.121 634.986 267.915 635.876 261.926 636.526 253.128 638.187 248.363 639.568 243.598 640.949 236.465 643.573 232.512 645.399 228.559 647.225 221.99 650.984 217.913 653.751 213.836 656.518 207.749 661.289 204.386 664.352 201.023 667.416 195.674 673.314 192.499 677.458 189.324 681.604 184.828 688.641 182.508 693.097 L178.29 701.199 Z M348.703 769.919 C347.491 769.875 341.55 768.978 335.5 767.927 329.45 766.875 317.15 764.186 308.166 761.952 299.182 759.717 285.907 755.829 278.666 753.31 271.425 750.792 260.1 746.455 253.5 743.672 246.9 740.89 236.525 736.071 230.444 732.964 224.363 729.857 216.162 725.43 212.219 723.128 205.051 718.942 205.051 718.942 207.567 713.221 208.951 710.074 211.691 705.025 213.656 702 215.622 698.975 219.541 694.083 222.365 691.129 225.189 688.176 230.102 683.814 233.283 681.436 236.463 679.059 242.007 675.724 245.603 674.025 249.198 672.326 255.821 670.054 260.32 668.975 265.507 667.732 271.976 667.018 278 667.024 283.225 667.03 290.509 667.672 294.186 668.452 297.863 669.231 303.614 670.976 306.965 672.33 310.316 673.683 315.553 676.3 318.603 678.145 321.653 679.99 326.67 683.745 329.752 686.488 332.833 689.231 337.348 694.181 339.785 697.488 342.222 700.795 345.466 705.975 346.993 709 348.521 712.025 350.76 717.65 351.969 721.5 353.343 725.872 354.384 732.442 354.743 739 355.08 745.172 354.847 752.179 354.176 756 353.549 759.575 352.557 764.188 351.971 766.25 351.141 769.172 350.42 769.982 348.703 769.919 Z M450.438 769.681 C444.375 770.254 444.375 770.254 443.196 764.877 442.547 761.92 441.572 756.35 441.028 752.5 440.484 748.65 440.034 741.45 440.027 736.5 440.02 731.55 440.628 723.45 441.378 718.5 442.128 713.55 443.753 705.773 444.989 701.217 446.226 696.661 449.852 687.631 453.047 681.149 456.243 674.668 461.519 665.795 464.77 661.432 468.022 657.07 474.496 649.858 479.156 645.406 483.816 640.954 490.978 635.051 495.072 632.289 499.166 629.526 506.112 625.46 510.508 623.254 514.904 621.048 522.775 617.881 528 616.217 533.225 614.553 541.1 612.586 545.5 611.846 549.9 611.106 559.35 610.5 566.5 610.5 573.65 610.5 583.1 611.106 587.5 611.846 591.9 612.586 599.556 614.486 604.513 616.067 609.47 617.648 617.57 620.924 622.513 623.347 627.456 625.769 635.482 630.601 640.348 634.083 645.214 637.565 653.202 644.646 658.098 649.82 662.994 654.993 667 659.602 667 660.062 667 660.522 661.037 666.355 653.75 673.024 646.463 679.694 635.217 689.246 628.759 694.25 622.302 699.255 613.077 706.008 608.259 709.256 603.442 712.505 594.306 718.252 587.958 722.029 581.61 725.805 570.402 731.823 563.051 735.401 555.699 738.979 545.143 743.73 539.592 745.958 534.042 748.186 524.229 751.782 517.788 753.95 511.346 756.117 500.996 759.24 494.788 760.891 488.579 762.541 477.425 765.066 470 766.5 462.575 767.935 453.772 769.366 450.438 769.681 Z M66.5 542.673 C58.994 543.063 56.071 542.857 54.779 541.846 53.832 541.106 51.421 536 49.42 530.5 47.419 525 44.505 516.45 42.944 511.5 41.382 506.55 39.003 498.225 37.656 493 36.309 487.775 34.26 478.775 33.103 473 31.946 467.225 30.368 457.775 29.597 452 28.826 446.225 27.911 438.751 27.564 435.392 26.933 429.283 26.933 429.283 33.916 425.614 37.757 423.595 44.369 421.057 48.609 419.972 52.85 418.887 59.51 418.008 63.41 418.017 67.309 418.027 73.592 418.69 77.371 419.49 81.15 420.291 87.675 422.631 91.871 424.691 97.582 427.495 101.515 430.455 107.514 436.468 112.376 441.341 116.811 446.933 118.789 450.686 120.582 454.088 122.938 460.348 124.025 464.596 125.201 469.197 126 475.627 126 480.5 126 485.403 125.2 491.809 124.003 496.489 122.904 500.784 120.354 507.268 118.335 510.899 116.312 514.536 111.484 520.672 107.582 524.565 103.687 528.451 98.025 533.023 95 534.726 91.975 536.428 86.575 538.796 83 539.987 78.881 541.36 72.837 542.343 66.5 542.673 Z M419.792 514.906 C424.353 514.958 431.553 514.287 435.792 513.416 440.031 512.545 446.736 510.489 450.691 508.847 454.646 507.205 460.977 503.689 464.76 501.033 468.542 498.376 474.306 493.279 477.568 489.706 480.831 486.132 485.01 480.7 486.855 477.633 488.7 474.567 491.328 469.289 492.694 465.905 494.061 462.521 495.872 456.354 496.72 452.2 497.814 446.834 498.116 441.295 497.762 433.073 497.376 424.09 496.66 419.71 494.566 413.5 493.082 409.1 490.295 402.678 488.373 399.229 486.451 395.78 482.624 390.249 479.869 386.939 477.114 383.628 472.304 378.908 469.18 376.45 466.056 373.992 460.113 370.214 455.973 368.056 451.833 365.897 445.101 363.204 441.015 362.071 436.928 360.939 430.134 359.724 425.917 359.373 421.542 359.008 414.773 359.242 410.15 359.918 405.695 360.569 398.792 362.21 394.811 363.564 390.829 364.919 384.529 367.834 380.81 370.043 377.092 372.253 371.26 376.634 367.852 379.78 364.443 382.926 359.733 388.102 357.385 391.282 355.037 394.462 351.89 399.637 350.392 402.782 348.893 405.927 346.85 411.105 345.85 414.288 344.85 417.472 343.547 424.064 342.954 428.937 342.168 435.404 342.184 440.053 343.015 446.149 343.641 450.742 345.316 458.025 346.737 462.333 348.158 466.642 350.998 472.942 353.048 476.333 355.098 479.725 358.739 484.778 361.138 487.561 363.537 490.345 367.866 494.62 370.758 497.061 373.651 499.503 378.601 502.962 381.758 504.749 384.916 506.536 389.975 508.941 393 510.094 396.025 511.247 401.425 512.78 405 513.501 408.575 514.222 415.231 514.854 419.792 514.906 Z M423.5 483.315 C420.2 483.601 415.08 483.417 412.121 482.907 409.163 482.397 403.763 480.557 400.121 478.819 396.058 476.88 391.324 473.483 387.866 470.026 384.768 466.928 380.988 461.942 379.466 458.946 377.944 455.951 376.097 451.25 375.361 448.5 374.626 445.75 374.018 440.51 374.012 436.855 374.005 432.993 374.841 427.487 376.009 423.705 377.114 420.128 379.817 414.507 382.014 411.216 384.212 407.925 388.014 403.59 390.464 401.583 392.914 399.576 397.954 396.513 401.664 394.777 407.081 392.241 410.066 391.533 416.827 391.178 421.456 390.935 427.552 391.254 430.372 391.887 433.192 392.519 437.857 394.13 440.737 395.467 443.618 396.803 448.286 400.057 451.11 402.698 453.935 405.339 457.474 409.3 458.975 411.5 460.477 413.7 462.657 418.065 463.82 421.199 464.982 424.334 466.226 429.749 466.583 433.232 466.972 437.032 466.736 441.953 465.993 445.532 465.312 448.813 463.752 453.748 462.527 456.498 461.301 459.249 458.482 463.785 456.262 466.578 454.042 469.371 449.788 473.274 446.809 475.251 443.83 477.229 438.716 479.735 435.446 480.822 432.176 481.908 426.8 483.03 423.5 483.315 Z M724.782 440.946 C719.659 440.913 714.325 440.197 710.798 439.069 707.661 438.066 703.155 436.109 700.784 434.719 698.412 433.329 694.103 429.688 691.208 426.626 688.312 423.565 684.639 418.303 683.046 414.933 681.452 411.563 679.627 405.716 678.99 401.94 678.149 396.953 678.121 393.218 678.888 388.287 679.499 384.363 681.419 378.515 683.441 374.424 685.477 370.302 689.11 365.176 692.143 362.143 695.236 359.05 700.221 355.537 704.424 353.488 708.436 351.533 714.423 349.589 718.25 349 722.979 348.273 727.013 348.283 731.721 349.035 735.418 349.626 741.381 351.509 744.971 353.22 749.123 355.198 753.711 358.546 757.572 362.415 761.149 366.001 764.759 370.868 766.358 374.265 767.852 377.436 769.57 382.507 770.178 385.533 770.786 388.56 771.036 394.646 770.733 399.058 770.296 405.441 769.474 408.555 766.715 414.291 764.807 418.256 761.622 423.365 759.635 425.645 757.65 427.924 753.632 431.377 750.708 433.318 747.784 435.259 742.618 437.781 739.228 438.923 734.869 440.392 730.637 440.984 724.782 440.946 Z M230.619 386.91 C237.501 386.961 246.574 386.331 251.615 385.452 256.497 384.601 264.543 382.547 269.496 380.888 274.448 379.229 282.367 375.833 287.094 373.341 291.82 370.849 298.783 366.492 302.567 363.659 306.35 360.825 312.681 355.219 316.635 351.201 320.588 347.182 326.142 340.54 328.976 336.44 331.811 332.34 336.366 324.303 339.1 318.58 341.834 312.857 345.197 303.748 346.572 298.337 347.948 292.927 349.438 283.861 349.884 278.19 350.329 272.52 350.311 263.356 349.844 257.826 349.376 252.296 348.128 244.294 347.071 240.045 346.013 235.795 343.75 228.695 342.043 224.267 340.335 219.839 336.759 212.59 334.095 208.158 331.432 203.727 326.955 197.213 324.146 193.684 321.338 190.155 316.1 184.516 312.506 181.154 308.912 177.792 302.715 172.844 298.736 170.159 294.756 167.474 288.194 163.612 284.154 161.578 280.114 159.543 272.8 156.569 267.9 154.967 263 153.366 255.055 151.481 250.245 150.778 245.435 150.075 236.55 149.5 230.5 149.5 224.45 149.5 215.911 150.109 211.525 150.853 207.138 151.597 199.494 153.531 194.537 155.151 189.58 156.771 181.395 160.27 176.349 162.927 171.302 165.584 163.827 170.276 159.737 173.354 155.648 176.432 149.128 182.291 145.249 186.375 141.37 190.458 135.965 197.107 133.238 201.15 130.51 205.192 126.922 211.2 125.264 214.5 123.606 217.8 121.037 223.875 119.554 228 118.072 232.125 116.215 238.274 115.427 241.665 114.64 245.056 113.531 252.362 112.962 257.9 112.237 264.972 112.252 271.175 113.016 278.735 113.613 284.656 115.016 293.1 116.132 297.5 117.248 301.9 119.543 308.875 121.233 313 122.923 317.125 125.993 323.428 128.055 327.008 130.118 330.587 133.929 336.4 136.525 339.926 139.12 343.452 144.375 349.425 148.2 353.198 152.026 356.971 158.384 362.337 162.328 365.122 166.273 367.907 173.325 372.105 178 374.451 182.675 376.797 190.1 379.897 194.5 381.34 198.9 382.783 206.1 384.607 210.5 385.392 214.9 386.178 223.954 386.861 230.619 386.91 Z M235 355.473 C229.225 355.704 221.736 355.463 218.357 354.939 214.978 354.415 208.678 352.838 204.357 351.434 200.036 350.03 193.607 347.297 190.07 345.36 186.534 343.424 181.134 339.892 178.07 337.512 175.007 335.131 170.414 331.005 167.865 328.342 165.316 325.679 161.656 321.25 159.731 318.5 157.806 315.75 154.892 310.8 153.256 307.5 151.619 304.2 149.34 298.575 148.191 295 147.042 291.425 145.629 285.83 145.051 282.566 144.473 279.303 144.003 273.003 144.008 268.566 144.012 264.13 144.484 257.575 145.058 254 145.631 250.425 147.385 243.756 148.955 239.18 150.525 234.604 153.99 227.234 156.655 222.801 159.32 218.369 164.65 211.514 168.5 207.569 172.35 203.624 178.2 198.57 181.5 196.337 184.8 194.104 189.75 191.142 192.5 189.755 195.25 188.368 201.325 186.006 206 184.506 212.546 182.407 217.259 181.656 226.5 181.24 234.026 180.901 241.282 181.166 245.963 181.951 250.068 182.639 256.875 184.423 261.091 185.914 265.306 187.406 271.848 190.478 275.628 192.74 279.407 195.003 285.314 199.25 288.753 202.177 292.192 205.105 297.485 210.644 300.514 214.487 303.543 218.33 307.803 225.119 309.979 229.574 312.155 234.029 314.963 241.684 316.218 246.587 317.997 253.535 318.5 258.256 318.5 268 318.5 276.495 317.931 282.903 316.723 288 315.746 292.125 313.474 298.888 311.674 303.028 309.874 307.169 306.623 313.235 304.451 316.509 302.278 319.782 297.915 325.224 294.756 328.601 291.597 331.979 285.629 337.08 281.494 339.939 277.359 342.798 271.112 346.435 267.612 348.022 264.112 349.609 257.705 351.841 253.374 352.981 248.804 354.184 241.094 355.23 235 355.473 Z M542.026 319.874 C544.516 319.943 550.288 319.532 554.854 318.959 559.42 318.387 566.833 316.765 571.328 315.357 575.823 313.948 582.894 311.04 587.042 308.894 591.19 306.749 598.171 302.124 602.555 298.616 606.938 295.109 613.102 289.005 616.252 285.052 619.401 281.098 623.576 275.007 625.529 271.515 627.481 268.024 630.364 261.642 631.935 257.333 633.506 253.025 635.4 245.9 636.145 241.5 636.89 237.1 637.419 228.951 637.321 223.392 637.213 217.268 636.331 209.867 635.084 204.617 633.952 199.851 631.652 192.723 629.973 188.777 628.294 184.831 624.474 177.926 621.484 173.433 618.494 168.94 612.292 161.717 607.701 157.382 603.11 153.047 596.266 147.7 592.493 145.5 588.72 143.3 582.903 140.331 579.567 138.901 576.23 137.472 570.575 135.511 567 134.543 563.314 133.546 555.089 132.553 548 132.251 540.296 131.923 532.706 132.183 528.217 132.93 524.212 133.596 517.912 135.171 514.217 136.429 510.523 137.687 504.35 140.306 500.5 142.25 496.65 144.193 490.8 147.79 487.5 150.244 484.2 152.697 478.737 157.606 475.36 161.152 471.983 164.697 467.128 170.831 464.573 174.782 462.017 178.732 458.587 185.112 456.95 188.958 455.313 192.804 453.032 199.9 451.881 204.726 450.317 211.283 449.799 216.658 449.832 226 449.866 236.059 450.376 240.453 452.442 248.5 453.854 254 457.023 262.55 459.483 267.5 461.944 272.45 466.762 280.032 470.19 284.349 473.619 288.666 480.022 295.078 484.42 298.596 488.818 302.115 495.81 306.749 499.958 308.894 504.106 311.04 511.258 313.973 515.851 315.413 520.444 316.853 527.194 318.417 530.851 318.889 534.508 319.361 539.537 319.804 542.026 319.874 Z M543 287.902 C538.325 287.864 531.806 287.182 528.512 286.386 525.219 285.59 519.144 283.273 515.012 281.237 509.631 278.586 505.35 275.404 499.921 270.018 495.753 265.883 490.956 260.025 489.261 257 487.566 253.975 485.21 248.575 484.026 245 482.817 241.347 481.622 234.52 481.3 229.415 480.878 222.734 481.179 218.292 482.439 212.628 483.382 208.392 485.996 201.243 488.249 196.742 491.225 190.796 494.297 186.606 499.481 181.422 504.809 176.094 508.754 173.233 515.058 170.126 519.701 167.837 526.65 165.305 530.5 164.499 534.35 163.694 540.2 163.035 543.5 163.035 546.8 163.035 552.65 163.694 556.5 164.499 560.35 165.305 567.299 167.837 571.942 170.126 578.264 173.242 582.16 176.071 587.458 181.394 591.988 185.945 595.884 191.089 598.294 195.7 600.363 199.659 602.943 206.369 604.028 210.609 605.113 214.85 605.992 221.51 605.983 225.41 605.973 229.31 605.31 235.592 604.51 239.371 603.709 243.15 601.369 249.675 599.309 253.871 596.511 259.57 593.532 263.532 587.532 269.532 581.571 275.492 577.566 278.512 572 281.24 567.875 283.261 561.575 285.603 558 286.443 554.425 287.283 547.675 287.94 543 287.902 Z M344.54 98.934 C341.218 98.898 336.144 98.234 333.265 97.458 330.385 96.683 325.684 94.86 322.818 93.408 319.952 91.956 315.072 88.232 311.974 85.134 308.541 81.701 305.133 76.961 303.25 73 301.55 69.425 299.639 63.606 299.003 60.068 298.364 56.518 298.139 51.111 298.5 48.003 298.859 44.905 299.502 41.806 299.928 41.116 300.354 40.426 304.932 38.796 310.102 37.493 315.271 36.189 324.45 34.2 330.5 33.072 336.55 31.944 346.675 30.381 353 29.599 359.325 28.818 368.858 27.873 374.185 27.5 383.869 26.823 383.869 26.823 385.824 30.662 386.9 32.773 388.504 36.944 389.39 39.932 390.275 42.919 391 48.609 391 52.576 391 56.922 390.219 62.316 389.036 66.145 387.956 69.64 385.758 74.57 384.153 77.101 382.547 79.631 379.268 83.596 376.867 85.911 374.465 88.226 370.225 91.426 367.445 93.022 364.664 94.618 359.732 96.616 356.485 97.462 353.237 98.308 347.862 98.97 344.54 98.934 Z" fill="#929292" fill-opacity="1" stroke="#646464" stroke-width="16" stroke-opacity="1" stroke-linejoin="round" stroke-linecap="round"/>
</svg>
